mtllib materials.mtl
v 0 0.3049999 5.960464E-08
v -0.05775864 0.28324 0.03334701
v -0.06669392 0.28324 0
v -0.03334697 0.28324 0.05775869
v -7.450581E-09 0.28324 0.06669396
v 0.03334695 0.28324 0.05775869
v 0.05775863 0.28324 0.03334701
v 0.06669392 0.28324 5.960464E-08
v 0.05775863 0.28324 -0.03334695
v 0.03334697 0.28324 -0.05775863
v 7.450581E-09 0.28324 -0.0666939
v -0.03334695 0.28324 -0.05775863
v -0.05775864 0.28324 -0.03334695
v -0.1085507 0.2293786 0.06267178
v -0.1253436 0.2293786 0
v -0.06267181 0.2293786 0.1085507
v -1.490116E-08 0.2293786 0.1253436
v 0.06267177 0.2293786 0.1085508
v 0.1085507 0.2293786 0.06267184
v 0.1253436 0.2293786 5.960464E-08
v 0.1085507 0.2293786 -0.06267178
v 0.0626718 0.2293786 -0.1085507
v 2.235174E-08 0.2293786 -0.1253436
v -0.06267177 0.2293786 -0.1085507
v -0.1085507 0.2293786 -0.06267178
v -0.14625 0.1474999 0.08443749
v -0.1688749 0.1474999 0
v -0.0844375 0.1474999 0.14625
v -2.235174E-08 0.1474999 0.168875
v 0.08443747 0.1474999 0.14625
v 0.14625 0.1474999 0.08443755
v 0.1688749 0.1474999 5.960464E-08
v 0.14625 0.1474999 -0.08443743
v 0.08443748 0.1474999 -0.14625
v 2.980232E-08 0.1474999 -0.1688749
v -0.08443744 0.1474999 -0.14625
v -0.14625 0.1474999 -0.08443743
v -0.1663094 0.0338614 0.09601873
v -0.1920375 0.0338614 0
v -0.09601878 0.0338614 0.1663094
v -2.235174E-08 0.0338614 0.1920375
v 0.09601874 0.0338614 0.1663094
v 0.1663093 0.0338614 0.09601879
v 0.1920375 0.0338614 0
v 0.1663094 0.0338614 -0.09601873
v 0.09601877 0.0338614 -0.1663094
v 2.980232E-08 0.0338614 -0.1920375
v -0.09601872 0.0338614 -0.1663094
v -0.1663094 0.0338614 -0.09601873
v -0.1663094 -0.0338614 0.09601873
v -0.1920375 -0.0338614 -5.960464E-08
v -0.09601878 -0.0338614 0.1663093
v -2.235174E-08 -0.0338614 0.1920375
v 0.09601873 -0.0338614 0.1663094
v 0.1663093 -0.0338614 0.09601879
v 0.1920375 -0.0338614 0
v 0.1663093 -0.0338614 -0.09601873
v 0.09601876 -0.0338614 -0.1663094
v 2.980232E-08 -0.0338614 -0.1920375
v -0.0960187 -0.0338614 -0.1663094
v -0.1663094 -0.0338614 -0.09601873
v -0.14625 -0.09749997 0.08443743
v -0.1688749 -0.09749997 -5.960464E-08
v -0.08443749 -0.09750009 0.1462499
v -2.235174E-08 -0.09750009 0.1688749
v 0.08443746 -0.09750009 0.14625
v 0.14625 -0.09749997 0.08443749
v 0.1688749 -0.09749997 0
v 0.14625 -0.09749997 -0.08443749
v 0.08443747 -0.09749997 -0.14625
v 2.980232E-08 -0.09749997 -0.168875
v -0.08443743 -0.09749997 -0.14625
v -0.14625 -0.09749997 -0.08443749
v -0.1085507 -0.1493787 0.06267172
v -0.1253436 -0.1493787 -5.960464E-08
v -0.06267181 -0.1493787 0.1085507
v -1.490116E-08 -0.1493787 0.1253436
v 0.06267177 -0.1493787 0.1085507
v 0.1085507 -0.1493787 0.06267178
v 0.1253436 -0.1493787 0
v 0.1085507 -0.1493787 -0.06267184
v 0.0626718 -0.1493787 -0.1085507
v 2.235174E-08 -0.1493787 -0.1253436
v -0.06267177 -0.1493787 -0.1085508
v -0.1085507 -0.1493787 -0.06267184
v -0.05775861 -0.1832401 0.03334689
v -0.0666939 -0.1832401 -5.960464E-08
v -0.03334696 -0.1832401 0.05775857
v -7.450581E-09 -0.1832401 0.06669384
v 0.03334694 -0.1832401 0.05775857
v 0.0577586 -0.1832401 0.03334695
v 0.0666939 -0.1832401 0
v 0.05775861 -0.1832401 -0.03334701
v 0.03334695 -0.1832401 -0.05775863
v 7.450581E-09 -0.1832401 -0.06669396
v -0.03334694 -0.1832401 -0.05775863
v -0.05775861 -0.1832401 -0.03334695
v 0 -0.1950001 -5.960464E-08
vn -0.3091092 0.9474131 0.08282514
vn -0.2262836 0.9474129 0.2262842
vn -0.08282536 0.947413 0.3091092
vn 0.08282536 0.9474131 0.309109
vn 0.2262836 0.9474131 0.2262837
vn 0.3091091 0.9474131 0.08282503
vn 0.3091091 0.9474131 -0.08282506
vn 0.2262835 0.9474133 -0.2262826
vn 0.08282536 0.9474133 -0.3091086
vn -0.08282535 0.9474133 -0.3091085
vn -0.2262833 0.9474132 -0.2262833
vn -0.3091091 0.9474131 -0.0828248
vn -0.6655583 0.7247265 0.1783356
vn -0.4872226 0.7247264 0.4872226
vn -0.1783359 0.7247264 0.6655584
vn 0.1783354 0.7247265 0.6655584
vn 0.4872226 0.7247266 0.4872223
vn 0.6655582 0.7247266 0.1783362
vn 0.6655584 0.7247264 -0.1783359
vn 0.4872226 0.7247263 -0.4872227
vn 0.1783361 0.7247263 -0.6655584
vn -0.1783356 0.7247264 -0.6655586
vn -0.4872226 0.7247264 -0.4872226
vn -0.6655583 0.7247265 -0.1783359
vn -0.8592462 0.4568241 0.2302341
vn -0.6290118 0.4568244 0.6290116
vn -0.2302346 0.4568243 0.859246
vn 0.2302343 0.456824 0.8592462
vn 0.6290116 0.4568242 0.629012
vn 0.8592461 0.4568242 0.2302345
vn 0.8592461 0.4568242 -0.2302343
vn 0.6290118 0.4568244 -0.6290118
vn 0.2302345 0.4568244 -0.859246
vn -0.230234 0.4568242 -0.8592462
vn -0.6290118 0.4568241 -0.6290119
vn -0.8592461 0.4568241 -0.2302342
vn -0.9477324 0.193173 0.2539439
vn -0.6937883 0.1931729 0.6937882
vn -0.2539443 0.1931729 0.9477323
vn 0.253944 0.193173 0.9477324
vn 0.6937881 0.193173 0.6937885
vn 0.9477323 0.193173 0.2539442
vn 0.9477323 0.1931732 -0.253944
vn 0.6937883 0.1931732 -0.6937881
vn 0.2539442 0.1931732 -0.9477323
vn -0.2539438 0.1931732 -0.9477324
vn -0.6937882 0.1931732 -0.6937882
vn -0.9477323 0.1931733 -0.2539439
vn -0.9659259 3.266547E-08 0.2588188
vn -0.7071069 -1.09502E-07 0.7071066
vn -0.2588191 -3.819004E-07 0.9659258
vn 0.2588189 -2.817384E-07 0.9659259
vn 0.7071066 -1.379762E-07 0.707107
vn 0.9659258 -4.658871E-08 0.2588191
vn 0.9659259 -9.806745E-08 -0.258819
vn 0.7071068 8.62008E-09 -0.7071068
vn 0.2588192 -6.093462E-08 -0.9659258
vn -0.2588188 -4.716096E-08 -0.9659259
vn -0.7071067 -3.862212E-08 -0.7071069
vn -0.9659259 -1.166502E-07 -0.258819
vn -0.9112508 -0.3316679 0.2441687
vn -0.667082 -0.3316681 0.6670817
vn -0.244169 -0.3316682 0.9112507
vn 0.2441687 -0.3316681 0.9112508
vn 0.6670817 -0.3316682 0.6670819
vn 0.9112508 -0.331668 0.2441689
vn 0.9112508 -0.3316678 -0.244169
vn 0.6670818 -0.3316679 -0.6670819
vn 0.244169 -0.3316678 -0.9112508
vn -0.2441687 -0.3316679 -0.9112509
vn -0.6670817 -0.3316678 -0.667082
vn -0.9112507 -0.331668 -0.2441689
vn -0.7503995 -0.6296602 0.2010687
vn -0.5493307 -0.6296602 0.5493304
vn -0.2010692 -0.6296602 0.7503994
vn 0.2010688 -0.6296602 0.7503994
vn 0.5493304 -0.6296603 0.5493305
vn 0.7503996 -0.6296601 0.2010689
vn 0.7503995 -0.62966 -0.2010692
vn 0.5493307 -0.62966 -0.5493308
vn 0.2010692 -0.62966 -0.7503995
vn -0.2010689 -0.62966 -0.7503996
vn -0.5493305 -0.62966 -0.5493308
vn -0.7503995 -0.6296601 -0.2010691
vn -0.4955723 -0.8583563 0.132788
vn -0.3627841 -0.8583563 0.3627839
vn -0.1327883 -0.8583565 0.4955719
vn 0.1327882 -0.8583563 0.4955722
vn 0.362784 -0.8583564 0.362784
vn 0.4955722 -0.8583564 0.132788
vn 0.4955723 -0.8583562 -0.1327886
vn 0.362784 -0.8583562 -0.3627842
vn 0.1327883 -0.8583562 -0.4955723
vn -0.1327882 -0.8583562 -0.4955725
vn -0.362784 -0.8583562 -0.3627844
vn -0.4955722 -0.8583563 -0.1327884
vn -0.1734604 -0.9837435 0.04647861
vn -0.1269818 -0.9837435 0.1269813
vn -0.04647858 -0.9837436 0.1734599
vn 0.04647854 -0.9837436 0.1734601
vn 0.1269818 -0.9837435 0.1269814
vn 0.1734603 -0.9837435 0.04647874
vn 0.1734604 -0.9837435 -0.04647894
vn 0.1269818 -0.9837435 -0.1269821
vn 0.04647858 -0.9837435 -0.1734605
vn -0.04647854 -0.9837435 -0.1734603
vn -0.1269818 -0.9837435 -0.126982
vn -0.1734603 -0.9837435 -0.04647889
vt -0.06277844 0.03798233
vt -0.06399743 0.03107365
vt -0.06055453 0.03132876
vt -0.0292455 0.03133282
vt -0.03349452 0.02575056
vt -0.03031741 0.0243998
vt -0.001029036 0.009641232
vt -0.007349314 0.006596594
vt -0.005131796 0.003950614
vt 0.01513585 -0.02242333
vt 0.008122502 -0.02225394
vt 0.008890921 -0.02561967
vt 0.01415932 -0.05776198
vt 0.008083491 -0.05425484
vt 0.007146356 -0.05757755
vt -0.008324993 -0.08680528
vt -0.01160607 -0.08060445
vt -0.01416644 -0.08292028
vt -0.05030332 -0.09593723
vt -0.04927767 -0.08899721
vt -0.05271211 -0.08934834
vt -0.09337823 -0.07838021
vt -0.0883752 -0.07346234
vt -0.09132671 -0.07167149
vt -0.1186919 -0.04708716
vt -0.1118056 -0.0457474
vt -0.1132785 -0.04262502
vt -0.124603 -0.01607076
vt -0.1179494 -0.01829443
vt -0.1176944 -0.01485153
vt -0.1152964 0.01019931
vt -0.1104105 0.00516505
vt -0.1086009 0.008105095
vt -0.09357221 0.02958098
vt -0.09149802 0.02287923
vt -0.08855258 0.02468006
vt -0.06706227 0.1137182
vt -0.07050428 0.1134515
vt -0.07141363 0.1055406
vt -0.06494477 0.106042
vt 0.005473302 0.1060235
vt 0.002309941 0.1074061
vt -0.002211635 0.1008515
vt 0.003733537 0.09825291
vt 0.06295888 0.06486072
vt 0.06065597 0.06743272
vt 0.05381976 0.06334927
vt 0.05814782 0.05851548
vt 0.09695133 0.008399373
vt 0.09571229 0.0116217
vt 0.08787138 0.01023305
vt 0.0902 0.004177064
vt 0.1092821 -0.05176514
vt 0.1092278 -0.04831324
vt 0.1013881 -0.04691828
vt 0.10149 -0.05340574
vt 0.08969633 -0.1161531
vt 0.09118482 -0.1130381
vt 0.08478628 -0.1082982
vt 0.08198883 -0.1141524
vt -0.02929026 -0.1642951
vt -0.02590753 -0.1636053
vt -0.02598201 -0.1556427
vt -0.03233945 -0.1569391
vt -0.1629985 -0.07417592
vt -0.1608887 -0.07690857
vt -0.1537737 -0.07333298
vt -0.1577388 -0.0681973
vt -0.1835229 -0.0097216
vt -0.1831572 -0.0131545
vt -0.1752234 -0.01383576
vt -0.1759109 -0.007384011
vt -0.1801592 0.02369285
vt -0.1810483 0.02035697
vt -0.173886 0.01687708
vt -0.172215 0.02314649
vt -0.1639696 0.05402805
vt -0.1659537 0.05120283
vt -0.1604292 0.04546805
vt -0.1567002 0.0507777
vt -0.128303 0.08845465
vt -0.1312402 0.08664046
vt -0.1284239 0.07919218
vt -0.1229037 0.08260174
vt -0.07117883 0.1549341
vt -0.07763933 0.1543345
vt -0.07791055 0.1450654
vt -0.06920634 0.1458732
vt 0.03612077 0.1486878
vt 0.03035182 0.1516571
vt 0.02513772 0.1439887
vt 0.03291021 0.1399882
vt 0.1072136 0.09467901
vt 0.1030847 0.09968396
vt 0.09526752 0.09469563
vt 0.1008304 0.08795249
vt 0.1437552 0.03444767
vt 0.1410562 0.04034791
vt 0.1322173 0.0375436
vt 0.1358536 0.02959422
vt 0.1631608 -0.01633196
vt 0.1616044 -0.01003313
vt 0.1523984 -0.01114729
vt 0.1544954 -0.01963367
vt 0.1733257 -0.05470904
vt 0.1728355 -0.04823931
vt 0.1635722 -0.04781125
vt 0.1642327 -0.05652788
vt 0.1419125 -0.1328711
vt 0.1445714 -0.1269527
vt 0.1366371 -0.1221529
vt 0.1330547 -0.1301268
vt -0.1953997 0.04516825
vt -0.1954909 0.03868064
vt -0.1863032 0.03742471
vt -0.1861803 0.04616545
vt -0.1959788 0.04941022
vt -0.1972109 0.04304003
vt -0.1883879 0.04018592
vt -0.1867279 0.04876846
vt -0.1943437 0.05090273
vt -0.1966647 0.0448438
vt -0.1884724 0.04049909
vt -0.1853453 0.04866227
vt -0.1846203 0.06686421
vt -0.1882683 0.06149858
vt -0.1812899 0.05539177
vt -0.176375 0.06262087
vt -0.1521859 0.1075839
vt -0.1574625 0.1038082
vt -0.1530225 0.09566712
vt -0.1459134 0.1007541
vt -0.07717193 0.1719809
vt -0.08584714 0.1709056
vt -0.08501729 0.1593378
vt -0.0751522 0.1605607
vt 0.06880146 0.1646767
vt 0.06154751 0.1695548
vt 0.05458689 0.1602784
vt 0.06283577 0.1547312
vt 0.1396211 0.1015408
vt 0.1346315 0.1087185
vt 0.1247794 0.1025998
vt 0.1304534 0.09443767
vt 0.1692437 0.04828647
vt 0.1654657 0.05616952
vt 0.1547621 0.05170457
vt 0.1590583 0.04274029
vt 0.1853642 0.01693611
vt 0.1819812 0.02499655
vt 0.1710697 0.02106704
vt 0.1749167 0.01190104
vt 0.1942701 0.02561986
vt 0.1901581 0.03333397
vt 0.1796555 0.02841496
vt 0.1843314 0.01964279
vt 0.1162008 0.1633499
vt 0.1078304 0.1658702
vt 0.1039171 0.1549529
vt 0.1134356 0.1520869
vt -0.1376532 0.1448713
vt -0.1425261 0.1376138
vt -0.1332445 0.1306599
vt -0.1277034 0.1389129
vt -0.1766575 0.08913956
vt -0.1800978 0.0811034
vt -0.1696864 0.0759941
vt -0.1657743 0.08513249
vt -0.18795 0.06131009
vt -0.1915227 0.05333189
vt -0.1811972 0.04805121
vt -0.1771345 0.05712368
vt -0.1894201 0.05884741
vt -0.1939326 0.05136052
vt -0.1843225 0.04486839
vt -0.1791911 0.05338217
vt -0.1702947 0.09706704
vt -0.1767415 0.0911632
vt -0.1693615 0.08221685
vt -0.1620305 0.08893044
vt -0.08467373 0.1685108
vt -0.09446996 0.1668228
vt -0.09331997 0.1601489
vt -0.08352374 0.1618369
vt 0.09607394 0.1565212
vt 0.08871867 0.1632082
vt 0.08416302 0.1581972
vt 0.09151829 0.1515102
vt 0.1550706 0.09231384
vt 0.1501322 0.100941
vt 0.1442547 0.09757666
vt 0.1491931 0.08894948
vt 0.1760515 0.0497711
vt 0.1718052 0.05875915
vt 0.1656819 0.05586631
vt 0.1699281 0.04687826
vt 0.1862322 0.03307479
vt 0.181639 0.04189055
vt 0.175633 0.03876128
vt 0.1802262 0.02994553
vt 0.1832229 0.06165462
vt 0.1768827 0.06931087
vt 0.1716667 0.06499149
vt 0.1780069 0.05733524
vt 0.09446989 0.1668228
vt 0.08467366 0.1685108
vt 0.08352368 0.1618369
vt 0.09331991 0.1601489
vt -0.08871868 0.1632081
vt -0.09607395 0.1565212
vt -0.0915183 0.1515102
vt -0.08416303 0.1581971
vt -0.1501322 0.100941
vt -0.1550705 0.09231386
vt -0.149193 0.08894949
vt -0.1442547 0.09757667
vt -0.1718052 0.05875915
vt -0.1760514 0.0497711
vt -0.1699281 0.04687826
vt -0.1656819 0.05586631
vt -0.181639 0.04189054
vt -0.1862322 0.03307477
vt -0.1802262 0.02994551
vt -0.175633 0.03876128
vt -0.1768827 0.06931087
vt -0.1832229 0.06165462
vt -0.1780068 0.05733525
vt -0.1716667 0.06499149
vt -0.1482607 0.1133009
vt -0.156351 0.1075248
vt -0.1519434 0.1023831
vt -0.144829 0.1074625
vt 0.166391 0.09225461
vt 0.1632122 0.1016733
vt 0.1570124 0.09894814
vt 0.1598078 0.09066553
vt 0.1818182 0.0597258
vt 0.1788683 0.06921862
vt 0.1726043 0.06664431
vt 0.1751984 0.05829648
vt 0.1867606 0.0454542
vt 0.1829215 0.05462354
vt 0.1769307 0.05146534
vt 0.1803068 0.04340196
vt 0.1843832 0.05199125
vt 0.1789737 0.06033106
vt 0.1736405 0.0561572
vt 0.1783976 0.04882329
vt 0.1616388 0.09218214
vt 0.1538499 0.09835867
vt 0.1501283 0.09270067
vt 0.1569777 0.08726913
vt 0.08125101 0.1539987
vt 0.07136448 0.155034
vt 0.07125815 0.1482626
vt 0.07995223 0.1473521
vt -0.03796009 0.1544798
vt -0.0465761 0.149522
vt -0.04269213 0.1439741
vt -0.03511534 0.1483339
vt -0.1098666 0.1009456
vt -0.1159277 0.09306663
vt -0.1102155 0.08942871
vt -0.1048854 0.09635736
vt -0.1444134 0.04585344
vt -0.1486615 0.03686629
vt -0.1423066 0.03452551
vt -0.1385709 0.04242869
vt -0.1637298 0.0054299
vt -0.1668826 -0.003997481
vt -0.160295 -0.005568415
vt -0.1575225 0.002721882
vt -0.177354 -0.008617632
vt -0.1802227 -0.01813528
vt -0.173591 -0.01950801
vt -0.1710683 -0.01113833
vt 0.006722163 -0.1655428
vt 0.01507192 -0.1681308
vt 0.01597271 -0.1614187
vt 0.009775301 -0.1594978
vt 0.1710543 -0.04268544
vt 0.1748035 -0.03478863
vt 0.1682877 -0.03294236
vt 0.165505 -0.03880359
vt 0.1807552 0.005387161
vt 0.1806726 0.01412838
vt 0.1740057 0.01293868
vt 0.1740669 0.006450708
vt 0.1785563 0.0253396
vt 0.1759242 0.03367553
vt 0.1698954 0.03059039
vt 0.1718491 0.02440324
vt 0.167185 0.04893465
vt 0.1621574 0.05608586
vt 0.1573425 0.05132354
vt 0.161074 0.04601572
vt 0.1364641 0.08499309
vt 0.1291127 0.08972303
vt 0.1264469 0.08349749
vt 0.1319033 0.0799868
vt 0.0740812 0.1187232
vt 0.06536859 0.1194348
vt 0.06594792 0.1126874
vt 0.07241465 0.1121592
vt -0.005233233 0.1160158
vt -0.01318117 0.1123763
vt -0.009376493 0.1067737
vt -0.003477321 0.1094751
vt -0.0666382 0.07518303
vt -0.07241293 0.06862039
vt -0.06665531 0.06505479
vt -0.06236915 0.06992575
vt -0.1026955 0.02034459
vt -0.1060687 0.01228002
vt -0.09947322 0.01074258
vt -0.09696954 0.01672832
vt -0.1199478 -0.03487115
vt -0.1208737 -0.04356359
vt -0.114114 -0.04315051
vt -0.1134268 -0.03669874
vt -0.1150648 -0.09293424
vt -0.1128052 -0.1013788
vt -0.1066455 -0.09856418
vt -0.1083226 -0.09229644
vt 0.0409723 -0.1216402
vt 0.04740463 -0.1224902
vt 0.04676445 -0.1157483
vt 0.04334188 -0.115296
vt 0.1143307 -0.08520478
vt 0.1193936 -0.08114715
vt 0.1140816 -0.07694636
vt 0.1113877 -0.07910538
vt 0.1439642 -0.03812167
vt 0.1458265 -0.03190645
vt 0.1390686 -0.03146607
vt 0.1380776 -0.03477312
vt 0.1476287 -0.00342736
vt 0.1465257 0.002966462
vt 0.1402798 0.0003486169
vt 0.1408667 -0.003053463
vt 0.1362099 0.02547654
vt 0.1325839 0.03085706
vt 0.1279591 0.02590987
vt 0.1298884 0.02304696
vt 0.109703 0.05135322
vt 0.1041394 0.05469147
vt 0.1020453 0.04825108
vt 0.1050057 0.04647484
vt 0.06817602 0.06706591
vt 0.06170542 0.06754444
vt 0.06273248 0.06085049
vt 0.06617542 0.06059588
vt 0.02003447 0.06175262
vt 0.01405413 0.05923607
vt 0.01801313 0.05374152
vt 0.0211952 0.05508054
vt -0.02114766 0.0338557
vt -0.02545313 0.0290018
vt -0.01950837 0.0257578
vt -0.01721747 0.0283405
vt -0.04687108 -0.008396825
vt -0.04880499 -0.01459017
vt -0.04205256 -0.0151084
vt -0.04102356 -0.01181299
vt -0.05267874 -0.05631047
vt -0.05178373 -0.06273671
vt -0.04545624 -0.06032284
vt -0.04593247 -0.05690351
vt -0.0284194 -0.1021875
vt -0.02431464 -0.1072123
vt -0.02016367 -0.1018613
vt -0.02234776 -0.09918763
vt 0.05245628 -0.06465648
vt 0.05589454 -0.06496784
vt 0.05476603 -0.05829025
vt 0.07334013 -0.05810931
vt 0.07638784 -0.05648757
vt 0.07178774 -0.05151736
vt 0.08820907 -0.04361309
vt 0.08993492 -0.0406231
vt 0.0834004 -0.03884439
vt 0.09379734 -0.02650997
vt 0.09378092 -0.02305768
vt 0.08724061 -0.02481498
vt 0.09014824 -0.0108357
vt 0.08846246 -0.00782294
vt 0.08359056 -0.01252702
vt 0.07874854 0.000583156
vt 0.07583572 0.002436262
vt 0.07377703 -0.004015528
vt 0.06210967 0.005320284
vt 0.05866731 0.005582522
vt 0.05989106 -0.001078272
vt 0.04390683 0.001755046
vt 0.04074651 0.0003654744
vt 0.04496249 -0.004934447
vt 0.02847903 -0.009877627
vt 0.02635101 -0.0125961
vt 0.03257159 -0.01527342
vt 0.01984133 -0.0270933
vt 0.01927957 -0.03049962
vt 0.02602176 -0.02986206
vt 0.0209202 -0.04558878
vt 0.02212507 -0.04882404
vt 0.02765947 -0.04492094
vt 0.0326898 -0.05987172
vt 0.03540582 -0.06200287
vt 0.0380903 -0.05578537
o group35554845
g mesh35554845
usemtl mat21
f 3/3/1 2/2/1 1/1/1
f 2/6/2 4/5/2 1/4/2
f 4/9/3 5/8/3 1/7/3
f 5/12/4 6/11/4 1/10/4
f 6/15/5 7/14/5 1/13/5
f 7/18/6 8/17/6 1/16/6
f 8/21/7 9/20/7 1/19/7
f 9/24/8 10/23/8 1/22/8
f 10/27/9 11/26/9 1/25/9
f 11/30/10 12/29/10 1/28/10
f 12/33/11 13/32/11 1/31/11
f 13/36/12 3/35/12 1/34/12
f 15/40/13 14/39/13 2/38/13 3/37/13
f 14/44/14 16/43/14 4/42/14 2/41/14
f 16/48/15 17/47/15 5/46/15 4/45/15
f 17/52/16 18/51/16 6/50/16 5/49/16
f 18/56/17 19/55/17 7/54/17 6/53/17
f 19/60/18 20/59/18 8/58/18 7/57/18
f 20/64/19 21/63/19 9/62/19 8/61/19
f 21/68/20 22/67/20 10/66/20 9/65/20
f 22/72/21 23/71/21 11/70/21 10/69/21
f 23/76/22 24/75/22 12/74/22 11/73/22
f 24/80/23 25/79/23 13/78/23 12/77/23
f 25/84/24 15/83/24 3/82/24 13/81/24
f 27/88/25 26/87/25 14/86/25 15/85/25
f 26/92/26 28/91/26 16/90/26 14/89/26
f 28/96/27 29/95/27 17/94/27 16/93/27
f 29/100/28 30/99/28 18/98/28 17/97/28
f 30/104/29 31/103/29 19/102/29 18/101/29
f 31/108/30 32/107/30 20/106/30 19/105/30
f 32/112/31 33/111/31 21/110/31 20/109/31
f 33/116/32 34/115/32 22/114/32 21/113/32
f 34/120/33 35/119/33 23/118/33 22/117/33
f 35/124/34 36/123/34 24/122/34 23/121/34
f 36/128/35 37/127/35 25/126/35 24/125/35
f 37/132/36 27/131/36 15/130/36 25/129/36
f 39/136/37 38/135/37 26/134/37 27/133/37
f 38/140/38 40/139/38 28/138/38 26/137/38
f 40/144/39 41/143/39 29/142/39 28/141/39
f 41/148/40 42/147/40 30/146/40 29/145/40
f 42/152/41 43/151/41 31/150/41 30/149/41
f 43/156/42 44/155/42 32/154/42 31/153/42
f 44/160/43 45/159/43 33/158/43 32/157/43
f 45/164/44 46/163/44 34/162/44 33/161/44
f 46/168/45 47/167/45 35/166/45 34/165/45
f 47/172/46 48/171/46 36/170/46 35/169/46
f 48/176/47 49/175/47 37/174/47 36/173/47
f 49/180/48 39/179/48 27/178/48 37/177/48
f 51/184/49 50/183/49 38/182/49 39/181/49
f 50/188/50 52/187/50 40/186/50 38/185/50
f 52/192/51 53/191/51 41/190/51 40/189/51
f 53/196/52 54/195/52 42/194/52 41/193/52
f 54/200/53 55/199/53 43/198/53 42/197/53
f 55/204/54 56/203/54 44/202/54 43/201/54
f 56/208/55 57/207/55 45/206/55 44/205/55
f 57/212/56 58/211/56 46/210/56 45/209/56
f 58/216/57 59/215/57 47/214/57 46/213/57
f 59/220/58 60/219/58 48/218/58 47/217/58
f 60/224/59 61/223/59 49/222/59 48/221/59
f 61/228/60 51/227/60 39/226/60 49/225/60
f 63/232/61 62/231/61 50/230/61 51/229/61
f 62/236/62 64/235/62 52/234/62 50/233/62
f 64/240/63 65/239/63 53/238/63 52/237/63
f 65/244/64 66/243/64 54/242/64 53/241/64
f 66/248/65 67/247/65 55/246/65 54/245/65
f 67/252/66 68/251/66 56/250/66 55/249/66
f 68/256/67 69/255/67 57/254/67 56/253/67
f 69/260/68 70/259/68 58/258/68 57/257/68
f 70/264/69 71/263/69 59/262/69 58/261/69
f 71/268/70 72/267/70 60/266/70 59/265/70
f 72/272/71 73/271/71 61/270/71 60/269/71
f 73/276/72 63/275/72 51/274/72 61/273/72
f 75/280/73 74/279/73 62/278/73 63/277/73
f 74/284/74 76/283/74 64/282/74 62/281/74
f 76/288/75 77/287/75 65/286/75 64/285/75
f 77/292/76 78/291/76 66/290/76 65/289/76
f 78/296/77 79/295/77 67/294/77 66/293/77
f 79/300/78 80/299/78 68/298/78 67/297/78
f 80/304/79 81/303/79 69/302/79 68/301/79
f 81/308/80 82/307/80 70/306/80 69/305/80
f 82/312/81 83/311/81 71/310/81 70/309/81
f 83/316/82 84/315/82 72/314/82 71/313/82
f 84/320/83 85/319/83 73/318/83 72/317/83
f 85/324/84 75/323/84 63/322/84 73/321/84
f 87/328/85 86/327/85 74/326/85 75/325/85
f 86/332/86 88/331/86 76/330/86 74/329/86
f 88/336/87 89/335/87 77/334/87 76/333/87
f 89/340/88 90/339/88 78/338/88 77/337/88
f 90/344/89 91/343/89 79/342/89 78/341/89
f 91/348/90 92/347/90 80/346/90 79/345/90
f 92/352/91 93/351/91 81/350/91 80/349/91
f 93/356/92 94/355/92 82/354/92 81/353/92
f 94/360/93 95/359/93 83/358/93 82/357/93
f 95/364/94 96/363/94 84/362/94 83/361/94
f 96/368/95 97/367/95 85/366/95 84/365/95
f 97/372/96 87/371/96 75/370/96 85/369/96
f 98/375/97 86/374/97 87/373/97
f 98/378/98 88/377/98 86/376/98
f 98/381/99 89/380/99 88/379/99
f 98/384/100 90/383/100 89/382/100
f 98/387/101 91/386/101 90/385/101
f 98/390/102 92/389/102 91/388/102
f 98/393/103 93/392/103 92/391/103
f 98/396/104 94/395/104 93/394/104
f 98/399/105 95/398/105 94/397/105
f 98/402/106 96/401/106 95/400/106
f 98/405/107 97/404/107 96/403/107
f 98/408/108 87/407/108 97/406/108
